<svg xmlns="http://www.w3.org/2000/svg" viewBox="0 0 1000 500">
  <!-- Ocean background -->
  <rect width="100%" height="100%" fill="#1e88e5"/>
  
  <!-- Continents -->
  <!-- North America -->
  <path d="M100,150 L130,120 L170,100 L210,90 L250,100 L280,80 L310,90 L340,70 L370,80 L400,60 L430,70 L460,60 L490,80 L460,100 L430,120 L400,140 L370,160 L340,180 L310,200 L280,220 L250,240 L220,260 L190,240 L160,220 L130,200 L100,180 Z" fill="#4caf50"/>
  
  <!-- South America -->
  <path d="M220,270 L250,290 L280,310 L310,330 L340,350 L370,370 L400,390 L370,400 L340,380 L310,360 L280,340 L250,320 L220,300 L190,280 L160,260 L190,250 Z" fill="#4caf50"/>
  
  <!-- Europe -->
  <path d="M480,120 L510,110 L540,100 L570,110 L600,100 L630,110 L660,100 L690,120 L660,140 L630,160 L600,180 L570,160 L540,140 L510,130 Z" fill="#4caf50"/>
  
  <!-- Africa -->
  <path d="M550,180 L580,200 L610,220 L640,240 L670,260 L700,280 L730,300 L760,320 L730,340 L700,360 L670,380 L640,400 L610,390 L580,370 L550,350 L520,330 L490,310 L460,290 L490,270 L520,250 L550,230 L580,210 Z" fill="#4caf50"/>
  
  <!-- Asia -->
  <path d="M620,100 L650,90 L680,80 L710,90 L740,80 L770,90 L800,100 L830,120 L800,140 L770,160 L740,180 L710,200 L680,220 L650,240 L620,260 L590,240 L560,220 L530,200 L500,180 L530,160 L560,140 L590,120 Z" fill="#4caf50"/>
  
  <!-- Australia -->
  <path d="M840,350 L870,330 L900,340 L930,330 L960,350 L930,370 L900,390 L870,370 Z" fill="#4caf50"/>
  
  <!-- Title -->
  <text x="500" y="40" font-family="Arial, sans-serif" font-size="28" font-weight="bold" text-anchor="middle" fill="#ffffff">
    🗺️ Global Import Hotspots
  </text>
  
  <!-- Grid lines for reference -->
  <g stroke="#ffffff" stroke-opacity="0.1" stroke-width="1">
    <line x1="0" y1="100" x2="1000" y2="100"/>
    <line x1="0" y1="200" x2="1000" y2="200"/>
    <line x1="0" y1="300" x2="1000" y2="300"/>
    <line x1="0" y1="400" x2="1000" y2="400"/>
    <line x1="100" y1="0" x2="100" y2="500"/>
    <line x1="200" y1="0" x2="200" y2="500"/>
    <line x1="300" y1="0" x2="300" y2="500"/>
    <line x1="400" y1="0" x2="400" y2="500"/>
    <line x1="500" y1="0" x2="500" y2="500"/>
    <line x1="600" y1="0" x2="600" y2="500"/>
    <line x1="700" y1="0" x2="700" y2="500"/>
    <line x1="800" y1="0" x2="800" y2="500"/>
    <line x1="900" y1="0" x2="900" y2="500"/>
  </g>
</svg>